HIERARCHY
ROOT hip
{
  OFFSET 0 0 0
  CHANNELS 6 Xposition Yposition Zposition Zrotation Yrotation Xrotation
  JOINT abdomen
  {
    OFFSET 0 20.6881 -0.73152
    CHANNELS 3 Zrotation Xrotation Yrotation
    JOINT chest
    {
      OFFSET 0 11.7043 -0.48768
      CHANNELS 3 Zrotation Xrotation Yrotation
      JOINT neck
      {
        OFFSET 0 22.1894 -2.19456
        CHANNELS 3 Zrotation Xrotation Yrotation
        JOINT head
        {
          OFFSET -0.24384 7.07133 1.2192
          CHANNELS 3 Zrotation Xrotation Yrotation
          JOINT leftEye
          {
            OFFSET 4.14528 8.04674 8.04672
            CHANNELS 3 Zrotation Xrotation Yrotation
            End Site
            {
              OFFSET 1 0 0
            }
          }
          JOINT rightEye
          {
            OFFSET -3.6576 8.04674 8.04672
            CHANNELS 3 Zrotation Xrotation Yrotation
            End Site
            {
              OFFSET 1 0 0
            }
          }
        }
      }
      JOINT rCollar
      {
        OFFSET -2.68224 19.2634 -4.8768
        CHANNELS 3 Zrotation Xrotation Yrotation
        JOINT rShldr
        {
          OFFSET -8.77824 -1.95073 1.46304
          CHANNELS 3 Zrotation Xrotation Yrotation
          JOINT rForeArm
          {
            OFFSET -28.1742 -1.7115 0.48768
            CHANNELS 3 Zrotation Xrotation Yrotation
            JOINT rHand
            {
              OFFSET -22.5879 0.773209 7.07136
              CHANNELS 3 Zrotation Xrotation Yrotation
              JOINT rThumb1
              {
                OFFSET -1.2192 -0.487915 3.41376
                CHANNELS 3 Zrotation Xrotation Yrotation
                JOINT rThumb2
                {
                  OFFSET -3.37035 -0.52449 3.41376
                  CHANNELS 3 Zrotation Xrotation Yrotation
                  End Site
                  {
                    OFFSET -1.78271 -1.18214 1.43049
                  }
                }
              }
              JOINT rIndex1
              {
                OFFSET -7.75947 0.938293 5.60832
                CHANNELS 3 Zrotation Xrotation Yrotation
                JOINT rIndex2
                {
                  OFFSET -2.54057 -0.884171 1.56538
                  CHANNELS 3 Zrotation Xrotation Yrotation
                  End Site
                  {
                    OFFSET -1.62519 -0.234802 1.16502
                  }
                }
              }
              JOINT rMid1
              {
                OFFSET -8.24714 1.18213 3.41376
                CHANNELS 3 Zrotation Xrotation Yrotation
                JOINT rMid2
                {
                  OFFSET -3.10165 -0.590103 1.0647
                  CHANNELS 3 Zrotation Xrotation Yrotation
                  End Site
                  {
                    OFFSET -2.48547 -0.328903 0.83742
                  }
                }
              }
              JOINT rRing1
              {
                OFFSET -8.82822 0.546677 1.51678
                CHANNELS 3 Zrotation Xrotation Yrotation
                JOINT rRing2
                {
                  OFFSET -2.60934 -0.819778 -0.0198488
                  CHANNELS 3 Zrotation Xrotation Yrotation
                  End Site
                  {
                    OFFSET -2.33842 -0.294052 0.168128
                  }
                }
              }
              JOINT rPinky1
              {
                OFFSET -8.27202 -0.0477905 -0.4584
                CHANNELS 3 Zrotation Xrotation Yrotation
                JOINT rPinky2
                {
                  OFFSET -1.82734 -0.647385 -0.700984
                  CHANNELS 3 Zrotation Xrotation Yrotation
                  End Site
                  {
                    OFFSET -1.69225 -0.51767 -0.607171
                  }
                }
              }
            }
          }
        }
      }
      JOINT lCollar
      {
        OFFSET 2.68224 19.2634 -4.8768
        CHANNELS 3 Zrotation Xrotation Yrotation
        JOINT lShldr
        {
          OFFSET 8.77824 -1.95073 1.46304
          CHANNELS 3 Zrotation Xrotation Yrotation
          JOINT lForeArm
          {
            OFFSET 28.1742 -1.7115 0.48768
            CHANNELS 3 Zrotation Xrotation Yrotation
            JOINT lHand
            {
              OFFSET 22.5879 0.773209 7.07136
              CHANNELS 3 Zrotation Xrotation Yrotation
              JOINT lThumb1
              {
                OFFSET 1.2192 -0.487915 3.41376
                CHANNELS 3 Zrotation Xrotation Yrotation
                JOINT lThumb2
                {
                  OFFSET 3.37035 -0.52449 3.41376
                  CHANNELS 3 Zrotation Xrotation Yrotation
                  End Site
                  {
                    OFFSET 1.78271 -1.18214 1.43049
                  }
                }
              }
              JOINT lIndex1
              {
                OFFSET 7.75947 0.938293 5.60832
                CHANNELS 3 Zrotation Xrotation Yrotation
                JOINT lIndex2
                {
                  OFFSET 2.54057 -0.884171 1.56538
                  CHANNELS 3 Zrotation Xrotation Yrotation
                  End Site
                  {
                    OFFSET 1.62519 -0.234802 1.16502
                  }
                }
              }
              JOINT lMid1
              {
                OFFSET 8.24714 1.18213 3.41376
                CHANNELS 3 Zrotation Xrotation Yrotation
                JOINT lMid2
                {
                  OFFSET 3.10165 -0.590103 1.0647
                  CHANNELS 3 Zrotation Xrotation Yrotation
                  End Site
                  {
                    OFFSET 2.48547 -0.328903 0.83742
                  }
                }
              }
              JOINT lRing1
              {
                OFFSET 8.82822 0.546677 1.51678
                CHANNELS 3 Zrotation Xrotation Yrotation
                JOINT lRing2
                {
                  OFFSET 2.60934 -0.819778 -0.0198488
                  CHANNELS 3 Zrotation Xrotation Yrotation
                  End Site
                  {
                    OFFSET 2.33842 -0.294052 0.168128
                  }
                }
              }
              JOINT lPinky1
              {
                OFFSET 8.27202 -0.0477905 -0.4584
                CHANNELS 3 Zrotation Xrotation Yrotation
                JOINT lPinky2
                {
                  OFFSET 1.82734 -0.647385 -0.700984
                  CHANNELS 3 Zrotation Xrotation Yrotation
                  End Site
                  {
                    OFFSET 1.69225 -0.51767 -0.607171
                  }
                }
              }
            }
          }
        }
      }
    }
  }
  JOINT rButtock
  {
    OFFSET -8.77824 4.35084 1.2192
    CHANNELS 3 Zrotation Xrotation Yrotation
    JOINT rThigh
    {
      OFFSET 0 -1.70687 -2.19456
      CHANNELS 3 Zrotation Xrotation Yrotation
      JOINT rShin
      {
        OFFSET 0 -36.8199 0.73152
        CHANNELS 3 Zrotation Xrotation Yrotation
        JOINT rFoot
        {
          OFFSET 0.73152 -45.1104 -5.12064
          CHANNELS 3 Zrotation Xrotation Yrotation
          End Site
          {
            OFFSET -1.1221 -3.69964 12.103
          }
        }
      }
    }
  }
  JOINT lButtock
  {
    OFFSET 8.77824 4.35084 1.2192
    CHANNELS 3 Zrotation Xrotation Yrotation
    JOINT lThigh
    {
      OFFSET 0 -1.70687 -2.19456
      CHANNELS 3 Zrotation Xrotation Yrotation
      JOINT lShin
      {
        OFFSET 0 -36.8199 0.73152
        CHANNELS 3 Zrotation Xrotation Yrotation
        JOINT lFoot
        {
          OFFSET -0.73152 -45.1104 -5.12064
          CHANNELS 3 Zrotation Xrotation Yrotation
          End Site
          {
            OFFSET 1.1221 -3.69964 12.103
          }
        }
      }
    }
  }
}
MOTION
Frames:	5
Frame Time:	0.00833333
3.07587 86.5406 -19.2882 -1.9056 1.3062 4.4695 2.78423 7.29484 2.31513 3.93285 -5.19807 0.834251 -16.2285 -3.71069 -6.55268 19.9951 -13.6271 -5.11498 -0.0 0.0 0.0 -0.0 0.0 0.0 5.9308e-14 1.00974e-14 -1.96603e-14 18.2486 -8.71428 61.2077 -27.2993 -27.3892 63.1065 -0.535995 -20.3578 -2.98907 3.20321e-10 9.35907e-10 6.68737e-10 5.43062e-10 1.6071e-09 1.16296e-09 3.20333e-10 9.3592e-10 6.68736e-10 7.73091 5.47488 0.417314 3.20328e-10 9.35921e-10 6.68741e-10 2.90554 0.965183 0.102902 3.20331e-10 9.35914e-10 6.68735e-10 10.2786 0.731801 0.0259123 3.2032e-10 9.35913e-10 6.68736e-10 2.22167 -0.733487 -0.20892 5.93482e-14 1.00984e-14 -1.98792e-14 -27.4297 -3.14143 -63.7455 27.8293 -29.6338 -66.6136 1.64784 -33.861 5.41088 -3.48744e-10 5.61509e-10 -2.10858e-10 -5.96057e-10 9.63747e-10 -3.74765e-10 -3.48751e-10 5.61506e-10 -2.10845e-10 -7.73091 5.47488 -0.417314 -3.48745e-10 5.61507e-10 -2.10851e-10 -2.90554 0.965183 -0.102902 -3.48757e-10 5.61508e-10 -2.10858e-10 -10.2786 0.731801 -0.0259123 -3.48743e-10 5.61507e-10 -2.10868e-10 -2.22167 -0.733487 0.20892 -2.03217e-16 0.0 -3.88251e-19 1.43814 -8.66352 -3.29042 -0.104196 17.0975 0.2037 -1.06537 0.327467 -9.09353 2.03217e-16 0.0 3.88251e-19 3.35831 -11.511 1.31153 0.0190899 20.3683 -0.248426 0.424879 0.9893 -2.59144
3.10445 86.3511 -19.1596 -1.7714 1.2144 4.305 2.8138 7.05544 2.29981 3.85097 -5.37499 0.828775 -16.2361 -3.24738 -6.42822 20.0802 -13.3938 -5.01821 -0.0 0.0 0.0 -0.0 0.0 0.0 6.70928e-14 -2.78017e-14 -3.52843e-15 18.5591 -6.70883 59.6768 -27.5169 -28.247 64.4606 -0.465673 -19.0548 -2.78193 3.72734e-10 1.47061e-09 1.18206e-09 6.26892e-10 2.52302e-09 2.05068e-09 3.72749e-10 1.47062e-09 1.18206e-09 7.73091 5.47488 0.417314 3.72743e-10 1.47062e-09 1.18206e-09 2.90554 0.965183 0.102902 3.72745e-10 1.47062e-09 1.18206e-09 10.2786 0.731801 0.0259123 3.72732e-10 1.47062e-09 1.18206e-09 2.22167 -0.733487 -0.20892 6.71131e-14 -2.78078e-14 -3.77691e-15 -27.9269 -0.999235 -61.9203 28.0386 -30.7726 -68.39 1.53201 -32.822 5.20053 -5.69653e-10 1.0246e-09 -4.60922e-10 -9.70054e-10 1.75479e-09 -8.12529e-10 -5.6966e-10 1.02459e-09 -4.60909e-10 -7.73091 5.47488 -0.417314 -5.69654e-10 1.02459e-09 -4.60915e-10 -2.90554 0.965183 -0.102902 -5.69666e-10 1.02459e-09 -4.60924e-10 -10.2786 0.731801 -0.0259123 -5.69652e-10 1.02459e-09 -4.60934e-10 -2.22167 -0.733487 0.20892 -2.03217e-16 0.0 -3.88251e-19 1.4569 -8.36943 -3.32517 -0.103875 17.2128 0.214182 -1.18523 -0.458619 -9.01469 2.03217e-16 0.0 3.88251e-19 3.34986 -11.2709 1.30369 0.0200881 20.612 -0.252804 0.400044 0.234413 -2.36525
3.08494 86.1587 -18.9927 -1.829 1.0587 4.0878 2.83564 6.80752 2.27673 3.7667 -5.57671 0.821545 -16.2258 -2.72019 -6.29302 20.1622 -13.2279 -4.91116 -0.0 0.0 0.0 -0.0 0.0 0.0 6.93395e-14 -5.53766e-14 1.29389e-14 18.9764 -4.5728 58.1441 -27.7075 -29.0863 65.7843 -0.402327 -17.7648 -2.58036 3.76031e-10 1.81307e-09 1.5542e-09 6.28294e-10 3.10936e-09 2.69325e-09 3.76047e-10 1.81308e-09 1.5542e-09 7.73091 5.47488 0.417314 3.7604e-10 1.81308e-09 1.55421e-09 2.90554 0.965183 0.102902 3.76041e-10 1.81308e-09 1.5542e-09 10.2786 0.731801 0.0259123 3.76027e-10 1.81308e-09 1.55421e-09 2.22167 -0.733487 -0.20892 6.93349e-14 -5.53896e-14 1.26609e-14 -28.5561 1.32104 -60.0824 28.1943 -31.8705 -70.1699 1.4236 -31.7937 4.99746 -7.06571e-10 1.33576e-09 -6.59128e-10 -1.20118e-09 2.28617e-09 -1.15826e-09 -7.06579e-10 1.33576e-09 -6.59115e-10 -7.73091 5.47488 -0.417314 -7.06573e-10 1.33576e-09 -6.59121e-10 -2.90554 0.965183 -0.102902 -7.06584e-10 1.33576e-09 -6.5913e-10 -10.2786 0.731801 -0.0259123 -7.06571e-10 1.33576e-09 -6.5914e-10 -2.22167 -0.733487 0.20892 -2.03217e-16 0.0 -3.88251e-19 1.47306 -8.0833 -3.36609 -0.103677 17.3421 0.225013 -1.30484 -1.25204 -8.94523 2.03217e-16 0.0 3.88251e-19 3.33906 -11.0263 1.30455 0.0211471 20.8449 -0.256993 0.381663 -0.512647 -2.1366
3.03639 85.956 -18.8239 -2.0482 0.9838 3.8531 2.84713 6.57731 2.23936 3.71413 -5.71626 0.809509 -16.1771 -2.23944 -6.17513 20.1354 -13.203 -4.82672 -0.0 0.0 0.0 -0.0 0.0 0.0 6.25645e-14 -6.99635e-14 2.00276e-14 19.4963 -2.45885 56.6077 -27.8717 -29.8956 67.082 -0.347835 -16.5424 -2.3924 4.07986e-10 1.89057e-09 1.61078e-09 6.82971e-10 3.24254e-09 2.79064e-09 4.08002e-10 1.89057e-09 1.61078e-09 7.73091 5.47488 0.417314 4.07994e-10 1.89057e-09 1.61079e-09 2.90554 0.965183 0.102902 4.07995e-10 1.89057e-09 1.61078e-09 10.2786 0.731801 0.0259123 4.0798e-10 1.89057e-09 1.61079e-09 2.22167 -0.733487 -0.20892 6.25249e-14 -6.99807e-14 1.97294e-14 -29.3176 3.65683 -58.2638 28.297 -32.8612 -71.8451 1.32527 -30.8082 4.8074 -7.79498e-10 1.48576e-09 -7.86411e-10 -1.32436e-09 2.54163e-09 -1.37952e-09 -7.79507e-10 1.48576e-09 -7.86399e-10 -7.73091 5.47488 -0.417314 -7.79501e-10 1.48576e-09 -7.86405e-10 -2.90554 0.965183 -0.102902 -7.79509e-10 1.48576e-09 -7.86414e-10 -10.2786 0.731801 -0.0259123 -7.79498e-10 1.48576e-09 -7.86424e-10 -2.22167 -0.733487 0.20892 -2.03217e-16 0.0 -3.88251e-19 1.5017 -7.82052 -3.38608 -0.103799 17.4907 0.235578 -1.41913 -1.9885 -8.92541 2.03217e-16 0.0 3.88251e-19 3.3421 -10.7686 1.3128 0.0220567 21.0305 -0.260704 0.366461 -1.2361 -1.96482
3.0484 85.7588 -18.7019 -2.0219 0.9847 3.6994 2.83164 6.36299 2.18063 3.71122 -5.79686 0.791254 -16.0599 -1.74181 -6.07228 19.9446 -13.4437 -4.77228 -0.0 0.0 0.0 -0.0 0.0 0.0 3.74735e-14 -6.39812e-14 1.18114e-14 20.1172 -0.396648 54.9963 -28.0175 -30.7029 68.3695 -0.299045 -15.3733 -2.21468 5.08029e-10 1.52351e-09 1.11282e-09 8.61754e-10 2.61578e-09 1.93004e-09 5.08044e-10 1.52351e-09 1.11282e-09 7.73091 5.47488 0.417314 5.08036e-10 1.52351e-09 1.11283e-09 2.90554 0.965183 0.102902 5.08038e-10 1.52351e-09 1.11282e-09 10.2786 0.731801 0.0259123 5.08024e-10 1.52351e-09 1.11283e-09 2.22167 -0.733487 -0.20892 3.73773e-14 -6.39992e-14 1.15085e-14 -30.1813 5.93556 -56.4071 28.3706 -33.7848 -73.3794 1.23442 -29.8572 4.62748 -7.60929e-10 1.39419e-09 -8.18602e-10 -1.29336e-09 2.38335e-09 -1.43352e-09 -7.60938e-10 1.39419e-09 -8.1859e-10 -7.73091 5.47488 -0.417314 -7.6093e-10 1.39419e-09 -8.18596e-10 -2.90554 0.965183 -0.102902 -7.60935e-10 1.39419e-09 -8.18605e-10 -10.2786 0.731801 -0.0259123 -7.60927e-10 1.39419e-09 -8.18613e-10 -2.22167 -0.733487 0.20892 -2.03217e-16 0.0 -3.88251e-19 1.54329 -7.60082 -3.37193 -0.104515 17.6871 0.246254 -1.5318 -2.65712 -8.98144 2.03217e-16 0.0 3.88251e-19 3.36241 -10.4942 1.34153 0.0228359 21.1491 -0.263636 0.348627 -1.93694 -1.89548
